<svg height='300px' width='300px'  fill="#000000" xmlns="http://www.w3.org/2000/svg" data-name="Layer 1" viewBox="0 0 100 100" x="0px" y="0px"><title>38</title><g data-name="Group"><path data-name="Compound Path" d="M7.3,37.9H22.2v4.5H16.4a2,2,0,0,0,0,4H32.1a2,2,0,0,0,0-4H26.2V37.9H41.1a4,4,0,0,0,4-4V13.1a4,4,0,0,0-4-4H7.3a4,4,0,0,0-4,4V33.9A4,4,0,0,0,7.3,37.9Zm0-24.8H41.1V33.9H7.3Z"></path><path data-name="Compound Path" d="M96.7,93.5V91.9A18.9,18.9,0,0,0,84.3,74.2a11.6,11.6,0,1,0-12.9,0A18.9,18.9,0,0,0,58.9,91.9v1.7a2,2,0,0,0,2,2H94.7A2,2,0,0,0,96.7,93.5ZM77.8,56.9a7.6,7.6,0,1,1-7.6,7.6A7.6,7.6,0,0,1,77.8,56.9ZM62.9,91.5a14.9,14.9,0,0,1,29.8,0Z"></path><path data-name="Path" d="M68.7,3.4a2,2,0,0,0-2.8,0L53.7,15.6l-.3.3h-.1v.6a2,2,0,0,0,0,.8V18h.1l.3.3L65.9,30.6a2,2,0,0,0,2.8-2.8L59.9,19H80.1a6,6,0,0,1,6,6V45a2,2,0,0,0,4,0V25a10,10,0,0,0-10-10H59.9l8.8-8.8A2,2,0,0,0,68.7,3.4Z"></path><path data-name="Path" d="M46.8,84.1h0v-.3h0v-.3a2,2,0,0,0,0-.8v-.3h0V82h0l-.2-.3L34.4,69.4a2,2,0,0,0-2.8,2.8L40.3,81H20.1a6,6,0,0,1-6-6V55a2,2,0,0,0-4,0V75a10,10,0,0,0,10,10H40.3l-8.8,8.8a2,2,0,1,0,2.8,2.8L46.5,84.4Z"></path></g></svg>